<svg id="SvgjsSvg1001" width="288" height="288" xmlns="http://www.w3.org/2000/svg" version="1.1" xmlns:xlink="http://www.w3.org/1999/xlink" xmlns:svgjs="http://svgjs.com/svgjs"><defs id="SvgjsDefs1002"></defs><g id="SvgjsG1008"><svg xmlns="http://www.w3.org/2000/svg" xmlns:xlink="http://www.w3.org/1999/xlink" viewBox="0 0 64 64" width="288" height="288"><defs><linearGradient id="b" x1="949.87" x2="974.39" y1="518.014" y2="544.657" gradientTransform="translate(-601.699 154.938) scale(.54252)" gradientUnits="userSpaceOnUse" xlink:href="#a"></linearGradient><linearGradient id="a"><stop offset="0" stop-color="#ff7767" class="stopColor24f7bc svgShape"></stop><stop offset="1" stop-color="#f92b00" class="stopColor24c4fc svgShape"></stop></linearGradient></defs><g transform="translate(335 -1642.95) scale(3.77953)" fill="#000000" class="color000 svgShape"><rect width="16.933" height="16.933" x="-88.635" y="434.697" fill="url(#b)" rx="3.579" ry="3.579"></rect><path fill="#ffffff" d="M-83.185 438.887a.132.132 0 0 0-.094.226l.937.936.56.56a.132.132 0 1 1-.186.188l-.561-.561-.936-.936a.132.132 0 1 0-.187.187l.936.936.56.561a.132.132 0 1 1-.186.187l-.562-.561-.935-.935a.132.132 0 1 0-.187.187l.935.935h.001l.561.56a.132.132 0 1 1-.187.188l-.562-.562-.841-.841-.094-.094a.132.132 0 1 0-.187.187l.093.094.842.842.562.561.28.28a.393.393 0 0 0 .431.085l.405-.171 5.088 5.391a.255.255 0 0 0 .366.005l.318-.318a.27.27 0 0 0-.005-.387l-5.38-5.079.17-.404a.393.393 0 0 0-.083-.431l-.842-.842-.936-.935a.132.132 0 0 0-.094-.04zm6.52.443c-.87.003-1.585.409-2.27 1.093l-1.584 1.585.963.908 3.521-3.523a3.149 3.149 0 0 0-.63-.063zm-4.32 3.832-3.273 2.976a.252.252 0 0 0-.009.365l.375.374c.103.103.27.103.374 0l3.107-3.107-.574-.608z" class="colorfff svgShape"></path></g></svg></g></svg>